<?xml version="1.0" standalone="no"?>
<!DOCTYPE svg PUBLIC "-//W3C//DTD SVG 20010904//EN"
 "http://www.w3.org/TR/2001/REC-SVG-20010904/DTD/svg10.dtd">
<svg version="1.0" xmlns="http://www.w3.org/2000/svg"
 width="839.000000pt" height="839.000000pt" viewBox="0 0 839.000000 839.000000"
 preserveAspectRatio="xMidYMid meet">
<metadata>
Created by potrace 1.11, written by Peter Selinger 2001-2013
</metadata>
<g transform="translate(0.000000,839.000000) scale(0.100000,-0.100000)"
fill="#000000" stroke="none">
<path d="M563 8362 c-13 -2 -23 -7 -23 -12 0 -6 10 -6 23 -1 31 11 145 13 190
2 20 -5 37 -5 37 -1 0 17 -148 24 -227 12z"/>
<path d="M500 8347 c-78 -35 -127 -59 -144 -70 -27 -17 -108 -98 -129 -127
-29 -42 -19 -45 11 -4 24 33 100 106 137 132 18 13 132 62 144 62 6 0 11 5 11
10 0 6 -1 10 -2 9 -2 0 -14 -5 -28 -12z"/>
<path d="M800 8347 c3 -3 29 -15 59 -27 30 -11 67 -30 83 -41 15 -11 28 -16
28 -11 0 12 -103 66 -145 76 -16 4 -28 5 -25 3z"/>
<path d="M1034 8205 c31 -30 63 -69 71 -86 9 -17 19 -29 22 -26 9 10 -46 85
-102 138 -55 52 -47 30 9 -26z"/>
<path d="M488 8145 c-2 -1 -24 -5 -49 -8 -57 -7 -165 -55 -230 -103 -27 -19
-49 -32 -49 -27 0 4 11 27 24 50 17 28 21 45 14 49 -7 4 -8 2 -4 -4 4 -7 3
-12 -1 -12 -5 0 -19 -28 -33 -62 -13 -35 -35 -74 -47 -87 -30 -34 -79 -136
-97 -202 -13 -49 -15 -207 -3 -249 2 -8 7 -28 12 -43 20 -73 73 -156 145 -226
67 -65 159 -114 260 -138 44 -10 173 -8 224 4 107 25 236 102 291 175 53 69
66 91 81 129 9 24 29 59 43 78 54 69 103 161 115 214 10 44 0 31 -18 -23 -17
-50 -67 -142 -94 -169 -12 -13 -13 -9 -6 30 14 80 7 168 -20 255 -51 164 -203
307 -376 354 -40 11 -174 22 -182 15z"/>
<path d="M1137 8068 c9 -12 29 -68 52 -148 l10 -35 -5 40 c-9 64 -42 155 -56
155 -7 0 -7 -4 -1 -12z"/>
<path d="M1193 7840 c0 -22 3 -37 6 -34 8 8 8 74 0 74 -4 0 -6 -18 -6 -40z"/>
<path d="M1190 7771 c0 -11 -3 -26 -6 -35 -3 -9 -2 -16 4 -16 5 0 12 16 14 35
2 19 0 35 -4 35 -4 0 -8 -9 -8 -19z"/>
<path d="M4488 7095 c-2 -2 -23 -5 -48 -8 -40 -5 -83 -17 -130 -35 -8 -3 -17
-6 -20 -6 -30 -6 -139 -83 -191 -135 -106 -106 -182 -247 -210 -391 -7 -36
-13 -66 -14 -67 0 -1 -18 2 -39 7 -25 6 -35 5 -29 -1 9 -9 29 -15 55 -18 4 -1
7 -47 7 -103 1 -57 3 -114 6 -128 3 -14 8 -42 10 -64 3 -21 10 -47 16 -57 5
-11 7 -19 3 -19 -3 0 0 -7 7 -17 8 -9 13 -19 13 -22 -1 -3 2 -16 7 -29 5 -13
9 -26 9 -30 0 -4 11 -24 25 -45 14 -20 23 -37 21 -37 -3 0 6 -17 20 -37 l25
-37 -51 -19 c-28 -10 -48 -22 -45 -27 3 -5 -5 -16 -18 -25 -13 -8 -33 -34 -45
-57 -40 -82 -44 -127 -45 -503 0 -305 1 -323 22 -377 35 -90 114 -156 227
-192 21 -6 21 -9 9 -50 -8 -25 -16 -57 -19 -73 -3 -15 -10 -48 -16 -73 -16
-64 -19 -77 -36 -159 -31 -159 -43 -239 -49 -342 -9 -158 -14 -212 -19 -216
-2 -3 -14 0 -25 7 -12 6 -21 7 -21 1 0 -5 11 -12 24 -15 22 -5 23 -8 14 -53
-5 -27 -11 -57 -13 -68 -3 -21 -21 -102 -36 -170 -5 -22 -12 -51 -14 -65 -5
-25 -15 -71 -22 -100 -8 -33 -15 -99 -20 -175 -6 -101 11 -130 78 -134 51 -2
62 -8 55 -27 -3 -7 -8 -44 -11 -81 -4 -38 -8 -88 -11 -113 -17 -182 -24 -657
-11 -778 8 -81 22 -131 56 -206 36 -77 38 -82 220 -493 116 -261 150 -348 145
-367 -4 -18 -12 -25 -26 -23 -16 2 -23 -7 -33 -40 -7 -23 -10 -45 -7 -48 3 -3
0 -5 -7 -5 -7 0 -10 -4 -7 -9 11 -17 -38 -135 -82 -200 -83 -122 -128 -172
-275 -302 -43 -39 -59 -95 -36 -124 29 -35 70 -69 87 -72 16 -3 70 -3 160 0
43 2 60 16 20 18 -16 0 -18 2 -8 6 8 4 36 21 62 40 26 18 51 33 55 33 5 0 22
13 39 28 17 15 46 38 64 52 18 14 39 31 46 37 7 7 15 13 18 13 3 0 14 8 24 17
67 64 97 84 136 89 61 7 117 25 157 50 l36 23 -1 -117 c-1 -64 -4 -121 -7
-127 -11 -18 -1 -96 16 -121 17 -27 15 -28 -47 -25 -21 1 -38 -2 -38 -6 0 -13
190 -20 317 -12 31 2 49 8 45 14 -3 5 3 3 13 -5 10 -8 16 -10 12 -3 -5 8 4 18
25 29 46 24 59 39 54 66 -3 13 -5 23 -6 23 -1 0 -3 7 -5 15 -2 8 -19 80 -39
160 -20 79 -39 156 -43 170 -16 65 -8 190 17 280 7 25 14 52 15 60 4 24 47
214 53 230 2 8 6 22 7 30 2 8 19 96 40 195 39 188 40 196 50 259 3 21 8 48 10
60 3 12 7 37 10 56 2 19 8 60 12 90 13 99 5 443 -12 470 -3 5 -1 11 5 15 6 4
8 11 5 16 -7 10 -7 294 0 504 2 72 4 149 4 173 1 40 3 43 23 36 12 -3 31 -15
42 -26 28 -26 58 -32 119 -24 29 4 58 8 65 8 6 1 12 6 12 11 0 6 3 8 6 4 4 -3
33 8 66 25 48 25 58 35 54 49 -3 11 -9 28 -12 38 -5 16 -2 19 17 14 15 -4 20
-3 15 6 -4 6 -11 9 -16 6 -14 -8 -27 17 -50 95 -11 41 -24 82 -27 90 -3 8 -7
22 -8 30 -2 8 -20 69 -40 135 -50 164 -72 234 -94 308 -100 326 -199 615 -264
767 -33 78 -34 77 30 85 80 10 84 10 157 35 167 55 166 171 -1 183 -19 1 -22
5 -16 22 4 11 7 30 8 43 0 12 2 22 5 22 13 0 -4 381 -24 535 -9 66 -19 169
-19 190 1 23 -117 114 -185 143 -32 13 -44 26 -60 63 -19 46 -21 97 -4 108 5
3 12 18 16 33 8 34 4 36 231 -80 94 -47 188 -95 210 -106 22 -11 42 -22 45
-25 3 -3 25 -17 50 -30 87 -47 377 -225 405 -248 6 -5 43 -30 84 -57 41 -26
80 -53 87 -61 7 -7 30 -23 51 -36 41 -25 54 -35 81 -60 9 -8 35 -29 57 -45 22
-16 45 -34 50 -40 6 -5 33 -28 60 -49 81 -65 165 -139 251 -223 13 -13 24 -19
24 -14 0 8 -129 130 -200 188 -19 16 -44 37 -55 47 -49 43 -214 172 -260 202
-27 18 -60 42 -72 54 -12 11 -24 21 -27 21 -3 0 -60 37 -128 83 -68 45 -168
109 -223 141 -55 33 -103 64 -107 70 -4 6 -8 8 -8 3 0 -4 -18 4 -40 18 -45 29
-131 76 -205 113 -27 14 -53 29 -56 34 -3 6 -10 10 -15 9 -5 0 -69 29 -142 65
-110 53 -132 68 -127 82 15 35 35 119 41 172 8 64 8 212 0 253 -3 15 -8 39
-11 55 -40 201 -187 412 -350 499 -33 17 -62 32 -65 32 -3 0 -21 7 -40 15 -19
8 -38 15 -42 15 -5 1 -9 1 -10 2 -18 6 -156 18 -160 14z m333 -4115 c1 -8 2
-58 4 -110 10 -312 15 -425 16 -425 1 0 3 -29 4 -65 6 -137 18 -252 36 -327
10 -46 9 -122 -7 -718 -2 -88 -6 -241 -9 -340 -2 -99 -4 -183 -5 -187 0 -4
-13 -14 -29 -23 -22 -11 -32 -25 -38 -55 l-8 -41 -29 53 c-16 29 -34 63 -40
75 -6 13 -14 23 -18 23 -5 0 -8 7 -8 15 0 8 -4 15 -10 15 -5 0 -10 6 -10 13 0
7 -15 31 -33 53 -29 34 -57 116 -71 207 -1 7 -4 17 -8 22 -3 6 -9 28 -12 50
-4 22 -14 69 -22 105 -9 36 -17 74 -19 85 -1 11 -5 36 -9 55 -3 19 -8 48 -11
64 -20 125 -58 253 -122 403 l-35 83 22 92 c22 95 27 115 34 146 2 9 9 35 14
57 6 22 13 51 16 65 4 24 13 61 71 305 13 55 34 143 45 195 12 52 25 98 29
102 3 4 48 9 100 12 52 4 96 7 97 9 1 1 16 2 33 2 21 1 31 -4 32 -15z"/>
<path d="M2416 7033 c-1 -1 -40 -5 -86 -9 -47 -3 -87 -8 -90 -11 -3 -3 36 -2
85 2 50 4 118 7 153 7 34 0 62 3 62 6 0 6 -118 11 -124 5z"/>
<path d="M2550 7029 c0 -3 47 -6 105 -7 57 0 124 -3 147 -6 28 -4 36 -2 23 3
-29 12 -275 21 -275 10z"/>
<path d="M2850 7019 c0 -5 11 -9 25 -9 14 0 25 2 25 4 0 2 -11 6 -25 8 -14 3
-25 1 -25 -3z"/>
<path d="M2187 7013 c-4 -3 -66 -14 -111 -18 -21 -3 -41 -7 -44 -10 -6 -6 41
-2 123 10 28 5 56 8 63 8 6 0 12 4 12 8 0 7 -37 9 -43 2z"/>
<path d="M2910 7011 c0 -4 6 -8 13 -8 28 -1 164 -14 190 -19 15 -2 27 -1 27 4
0 4 -10 8 -22 8 -22 1 -104 9 -175 19 -18 2 -33 1 -33 -4z"/>
<path d="M1990 6980 c-8 -5 -12 -11 -9 -14 3 -3 14 1 25 9 21 16 8 20 -16 5z"/>
<path d="M3170 6981 c42 -13 100 -20 100 -12 0 4 -6 8 -12 8 -7 0 -35 3 -63 6
-30 4 -40 3 -25 -2z"/>
<path d="M3300 6960 c14 -4 34 -8 45 -8 16 0 15 2 -5 8 -14 4 -34 8 -45 8 -16
0 -15 -2 5 -8z"/>
<path d="M3370 6949 c0 -7 2 -10 5 -7 3 3 30 0 60 -7 30 -7 55 -10 55 -5 0 4
-19 10 -43 13 -24 3 -51 9 -60 13 -11 4 -17 1 -17 -7z"/>
<path d="M2750 6550 l-25 -8 28 -1 c15 -1 27 4 27 9 0 6 -1 10 -2 9 -2 -1 -14
-5 -28 -9z"/>
<path d="M2798 6549 c-6 -4 4 -6 21 -5 17 0 31 4 31 8 0 8 -37 6 -52 -3z"/>
<path d="M2860 6549 c0 -5 5 -7 10 -4 6 3 10 8 10 11 0 2 -4 4 -10 4 -5 0 -10
-5 -10 -11z"/>
<path d="M2895 6550 c4 -6 11 -8 16 -5 14 9 11 15 -7 15 -8 0 -12 -5 -9 -10z"/>
<path d="M2685 6544 c-16 -2 -53 -9 -80 -14 -28 -6 -64 -12 -80 -14 -48 -7
-239 -69 -253 -83 -15 -14 -2 -18 14 -4 26 24 259 86 369 97 28 3 54 10 60 15
5 5 7 8 5 8 -3 -1 -18 -4 -35 -5z"/>
<path d="M3401 6526 c2 -2 24 -6 49 -9 30 -4 38 -3 25 3 -19 8 -83 14 -74 6z"/>
<path d="M3500 6509 c0 -5 5 -7 10 -4 6 3 10 8 10 11 0 2 -4 4 -10 4 -5 0 -10
-5 -10 -11z"/>
<path d="M3530 6508 c0 -5 11 -8 24 -8 13 0 31 -3 40 -6 9 -3 16 -2 16 4 0 5
-18 12 -40 14 -22 2 -40 0 -40 -4z"/>
<path d="M3635 6491 c11 -4 40 -11 65 -14 27 -4 37 -3 25 2 -11 4 -40 11 -65
14 -27 4 -37 3 -25 -2z"/>
<path d="M3750 6470 c0 -5 10 -10 23 -10 18 0 19 2 7 10 -19 13 -30 13 -30 0z"/>
<path d="M2220 6410 c-14 -11 -20 -20 -15 -19 13 0 50 28 44 33 -2 3 -15 -4
-29 -14z"/>
<path d="M2160 6380 c0 -5 7 -7 15 -4 8 4 15 8 15 10 0 2 -7 4 -15 4 -8 0 -15
-4 -15 -10z"/>
<path d="M2130 6360 c0 -5 -4 -10 -10 -10 -9 0 -38 -24 -108 -92 -29 -28 -106
-140 -108 -157 0 -3 -8 -24 -18 -46 -9 -22 -20 -53 -22 -70 -9 -56 -16 -190
-10 -184 4 3 9 42 12 85 5 78 9 119 13 119 2 0 4 7 6 15 2 8 9 29 16 45 7 17
13 32 13 35 8 46 173 231 218 246 19 6 25 24 8 24 -5 0 -10 -4 -10 -10z"/>
<path d="M5700 6121 c28 -22 70 -42 70 -34 0 8 -37 28 -70 40 -13 4 -13 4 0
-6z"/>
<path d="M8029 6116 c-2 -3 -16 -7 -30 -9 -48 -9 -125 -55 -162 -98 -21 -23
-35 -44 -32 -47 3 -3 12 4 21 16 41 58 117 110 178 119 33 5 42 10 34 18 -2 3
-7 3 -9 1z"/>
<path d="M8050 6112 c0 -4 9 -8 20 -9 11 -1 20 2 20 5 0 4 -9 8 -20 9 -11 1
-20 -2 -20 -5z"/>
<path d="M8105 6110 c-2 -4 11 -10 30 -13 19 -3 51 -13 72 -23 41 -19 116 -88
126 -116 3 -10 12 -18 18 -18 26 0 -75 111 -125 137 -42 22 -115 42 -121 33z"/>
<path d="M5780 6076 c0 -7 63 -36 68 -32 2 3 -10 12 -27 20 -31 16 -41 19 -41
12z"/>
<path d="M5860 6030 c0 -5 5 -10 10 -10 6 0 10 5 10 10 0 6 -4 10 -10 10 -5 0
-10 -4 -10 -10z"/>
<path d="M5890 6016 c0 -4 50 -33 160 -94 25 -14 56 -32 70 -42 41 -28 50 -32
50 -22 0 5 -12 15 -27 23 -16 7 -50 27 -78 44 -27 17 -61 36 -75 43 -14 7 -38
21 -55 31 -30 19 -45 25 -45 17z"/>
<path d="M7929 5975 c-49 -13 -105 -40 -132 -63 -17 -15 -17 -15 -8 12 6 15 7
25 2 22 -5 -3 -12 -17 -15 -31 -4 -14 -20 -46 -36 -72 -71 -112 -68 -251 7
-352 30 -41 59 -71 69 -71 3 0 19 -9 35 -21 36 -25 57 -30 141 -34 123 -6 219
50 283 165 11 19 36 60 56 90 19 30 40 71 45 90 12 42 19 148 9 138 -4 -4 -8
-31 -10 -60 -2 -60 -14 -118 -24 -118 -3 0 -12 -14 -20 -31 -7 -16 -15 -29
-16 -27 -2 2 -5 34 -6 71 -6 195 -194 339 -380 292z"/>
<path d="M8350 5919 c0 -5 5 -7 10 -4 6 3 10 8 10 11 0 2 -4 4 -10 4 -5 0 -10
-5 -10 -11z"/>
<path d="M8360 5893 c0 -4 5 -15 10 -23 8 -13 10 -13 10 2 0 9 -4 20 -10 23
-5 3 -10 3 -10 -2z"/>
<path d="M6180 5854 c0 -6 35 -32 78 -59 90 -56 91 -57 172 -113 34 -24 64
-41 66 -39 5 4 -228 162 -276 187 -14 7 -28 18 -32 24 -5 8 -8 8 -8 0z"/>
<path d="M1852 5768 c1 -16 6 -28 10 -28 11 0 10 22 -2 40 -8 11 -9 9 -8 -12z"/>
<path d="M1865 5692 c7 -49 35 -141 67 -222 26 -64 26 -65 33 -58 3 2 -4 22
-14 44 -21 43 -72 190 -70 202 1 4 1 9 -1 12 -1 3 -4 16 -6 29 -8 44 -16 37
-9 -7z"/>
<path d="M1982 5365 c11 -20 22 -34 25 -32 5 6 -30 67 -39 67 -4 0 2 -16 14
-35z"/>
<path d="M2010 5308 c0 -10 4 -18 9 -18 5 0 18 -19 29 -42 12 -24 33 -56 47
-73 l26 -30 -17 33 c-10 17 -22 32 -26 32 -4 0 -8 6 -8 13 0 6 -14 32 -30 57
-18 27 -30 38 -30 28z"/>
<path d="M2500 4696 c0 -7 57 -60 190 -180 16 -14 165 -139 190 -159 8 -7 31
-23 50 -37 19 -14 42 -30 50 -37 49 -40 152 -113 160 -113 5 0 13 -6 17 -13 4
-8 27 -24 51 -37 23 -13 42 -27 42 -32 0 -4 7 -8 15 -8 8 0 15 -4 15 -10 0 -5
5 -10 10 -10 6 0 32 -15 58 -33 67 -47 122 -78 122 -69 0 4 -30 25 -67 46 -38
22 -70 42 -73 45 -3 3 -34 25 -70 48 -36 24 -76 52 -90 63 -14 11 -31 20 -37
20 -7 0 -13 3 -13 8 0 4 -17 18 -37 32 -71 47 -261 194 -316 243 -13 12 -45
40 -71 62 -26 22 -73 65 -105 95 -71 67 -91 84 -91 76z"/>
<path d="M7250 4356 c0 -12 73 -146 78 -142 2 2 -4 18 -12 35 -9 17 -16 34
-15 37 0 4 -4 10 -9 13 -5 3 -16 20 -25 36 -9 17 -16 26 -17 21z"/>
<path d="M7870 4344 c0 -6 8 -19 18 -30 23 -25 127 -203 136 -231 4 -13 12
-23 19 -23 8 0 8 3 -1 12 -7 7 -12 17 -12 24 0 7 -22 49 -50 93 -27 44 -50 84
-50 88 -1 12 -60 78 -60 67z"/>
<path d="M2522 4186 c15 -14 30 -26 33 -26 4 0 12 -6 20 -12 29 -28 56 -48 64
-48 5 0 11 -3 13 -7 4 -11 107 -86 138 -103 14 -7 27 -16 30 -19 13 -17 140
-96 140 -87 0 2 -39 30 -87 62 -87 57 -185 127 -293 209 -69 52 -93 65 -58 31z"/>
<path d="M7330 4193 c0 -5 8 -17 17 -28 14 -18 15 -18 9 -2 -3 10 -6 23 -6 28
0 5 -4 9 -10 9 -5 0 -10 -3 -10 -7z"/>
<path d="M7360 4135 c0 -15 18 -40 24 -34 3 3 -1 14 -9 25 -8 10 -14 15 -15 9z"/>
<path d="M7391 4058 c36 -116 46 -157 41 -162 -3 -3 0 -6 7 -6 7 0 10 7 7 18
-3 9 -12 42 -20 72 -16 63 -33 110 -40 110 -3 0 0 -15 5 -32z"/>
<path d="M8074 3979 c17 -37 32 -65 34 -60 2 5 -8 32 -22 59 -14 27 -23 52
-20 55 3 2 -2 7 -9 10 -10 4 -4 -17 17 -64z"/>
<path d="M3480 3946 c0 -5 278 -166 286 -166 3 0 32 -15 64 -34 35 -20 57 -29
53 -20 -3 8 -11 14 -17 14 -7 0 -33 14 -59 30 -26 17 -52 30 -57 30 -5 0 -45
23 -90 50 -45 28 -83 50 -86 50 -2 0 -22 11 -44 25 -39 24 -50 29 -50 21z"/>
<path d="M8110 3899 c0 -8 39 -112 45 -117 8 -8 6 1 -11 54 -14 41 -34 79 -34
63z"/>
<path d="M2979 3866 c6 -7 55 -40 109 -72 53 -32 103 -64 110 -71 7 -7 24 -16
38 -19 13 -3 24 -10 24 -15 0 -5 6 -9 14 -9 8 0 21 -6 28 -13 7 -6 38 -25 68
-41 30 -16 62 -34 70 -41 8 -6 53 -31 100 -55 47 -24 87 -47 88 -52 2 -4 7 -6
12 -3 5 3 14 0 22 -7 7 -7 20 -14 28 -16 31 -7 -8 17 -125 78 -66 34 -164 88
-218 121 -55 32 -103 59 -107 59 -5 0 -15 6 -22 13 -7 7 -47 32 -88 57 -41 24
-77 47 -80 50 -3 3 -17 11 -32 19 -16 8 -28 18 -28 23 0 4 -5 8 -11 8 -8 0 -8
-4 0 -14z"/>
<path d="M7444 3859 c2 -13 5 -62 5 -108 1 -46 3 -82 6 -79 7 6 7 147 1 177
-7 32 -18 41 -12 10z"/>
<path d="M8160 3746 c5 -13 6 -26 4 -29 -3 -3 0 -8 7 -13 9 -5 10 -1 6 17 -4
13 -7 30 -7 37 0 6 -4 12 -10 12 -6 0 -6 -9 0 -24z"/>
<path d="M8170 3676 c0 -9 5 -16 10 -16 6 0 10 4 10 9 0 6 -4 13 -10 16 -5 3
-10 -1 -10 -9z"/>
<path d="M7443 3648 c2 -7 0 -24 -5 -38 -6 -17 -6 -22 1 -15 14 14 22 65 10
65 -6 0 -9 -6 -6 -12z"/>
<path d="M8181 3640 c0 -8 4 -22 9 -30 12 -18 12 -2 0 25 -6 13 -9 15 -9 5z"/>
<path d="M7419 3543 c-7 -21 -23 -57 -36 -80 -13 -24 -20 -43 -15 -43 9 0 56
97 67 138 10 37 -3 25 -16 -15z"/>
<path d="M7341 3392 c-25 -46 -181 -182 -210 -182 -5 0 -17 -7 -25 -16 -9 -9
-22 -17 -29 -18 -6 -1 -21 -7 -33 -14 -37 -20 -232 -82 -259 -82 -14 0 -24 -4
-20 -9 15 -25 289 75 399 145 87 56 224 194 191 194 -2 0 -9 -8 -14 -18z"/>
<path d="M2341 3049 c-24 -5 -47 -11 -50 -15 -3 -3 9 -3 27 1 19 4 49 7 69 7
19 0 32 3 28 6 -9 9 -26 9 -74 1z"/>
<path d="M2435 3050 c-3 -5 1 -10 10 -10 9 0 13 5 10 10 -3 6 -8 10 -10 10 -2
0 -7 -4 -10 -10z"/>
<path d="M2470 3040 c0 -5 4 -10 9 -10 6 0 13 5 16 10 3 6 -1 10 -9 10 -9 0
-16 -4 -16 -10z"/>
<path d="M2212 3008 c-34 -17 -84 -50 -110 -73 -44 -40 -103 -124 -118 -170
-3 -11 11 9 32 44 53 87 119 150 196 186 73 34 73 34 67 39 -2 2 -32 -9 -67
-26z"/>
<path d="M2530 3028 c14 -6 48 -21 75 -33 62 -27 143 -103 185 -173 18 -29 35
-51 37 -48 3 3 -4 18 -16 34 -12 17 -21 33 -21 37 0 3 -6 12 -12 19 -7 7 -25
26 -39 42 -53 59 -105 94 -179 121 -42 15 -65 16 -30 1z"/>
<path d="M2258 2865 c-2 -2 -19 -5 -38 -8 -99 -14 -231 -96 -280 -175 -42 -67
-65 -118 -75 -163 -11 -47 -13 -179 -3 -185 4 -3 8 -14 8 -26 0 -11 14 -50 31
-86 108 -224 380 -315 607 -202 77 39 156 119 195 200 17 36 34 67 37 70 22
19 76 109 92 152 26 72 34 183 18 258 -7 33 -16 60 -20 60 -5 0 -2 -21 6 -47
16 -53 18 -149 4 -210 -15 -64 -74 -183 -91 -183 -2 0 -3 39 -2 86 6 208 -117
378 -318 443 -32 10 -164 22 -171 16z"/>
<path d="M6280 2136 c-19 -6 -48 -24 -65 -41 -17 -16 -48 -39 -68 -49 -62 -32
-121 -103 -133 -158 -7 -34 -7 -108 -1 -114 3 -4 6 12 5 33 -1 111 67 216 155
237 17 4 27 2 27 -5 0 -19 41 -48 84 -60 65 -18 139 -17 201 2 55 17 79 36 88
71 6 21 -33 68 -56 68 -9 0 -17 4 -17 8 0 11 -7 12 -105 15 -44 2 -96 -2 -115
-7z"/>
<path d="M6010 1751 c0 -6 5 -13 10 -16 6 -3 10 1 10 9 0 9 -4 16 -10 16 -5 0
-10 -4 -10 -9z"/>
<path d="M6038 1683 c9 -21 23 -44 30 -51 6 -7 12 -17 12 -22 0 -15 99 -105
154 -140 53 -34 79 -63 35 -39 -35 19 -177 5 -222 -21 -40 -23 -57 -62 -40
-89 32 -51 154 -79 248 -58 22 5 46 10 53 10 19 1 72 55 72 74 0 9 -8 26 -17
37 -17 20 -17 20 0 7 9 -7 17 -10 17 -7 0 4 7 0 16 -8 8 -9 24 -16 35 -16 10
0 19 -5 19 -10 0 -6 10 -14 23 -19 13 -5 41 -21 63 -35 21 -15 47 -32 58 -39
112 -74 220 -191 290 -314 36 -64 34 -75 -8 -48 -34 23 -70 29 -156 28 -88 0
-155 -28 -170 -69 -24 -62 52 -107 180 -107 91 0 140 15 175 53 l19 21 13 -23
c7 -13 12 -31 13 -40 0 -10 4 -18 9 -18 5 0 7 8 4 19 -5 18 -3 18 47 1 96 -33
233 -12 283 44 24 27 22 40 -12 74 -64 63 -254 65 -334 2 -27 -21 -49 -28 -30
-9 14 14 -43 123 -107 203 -57 71 -240 226 -267 226 -7 0 -13 4 -13 8 0 5 -16
16 -35 25 -19 9 -35 21 -35 27 0 7 6 8 18 2 36 -19 157 -3 207 28 73 45 52 99
-52 136 -52 19 -181 10 -228 -15 -46 -25 -68 -58 -54 -83 7 -14 5 -16 -11 -13
-11 2 -29 13 -42 24 -12 12 -26 21 -31 21 -15 0 -121 86 -155 126 -18 20 -42
59 -55 85 -12 27 -25 48 -29 49 -4 0 0 -17 10 -37z"/>
<path d="M6953 715 c0 -8 4 -15 9 -15 4 0 8 7 8 15 0 8 -4 15 -8 15 -5 0 -9
-7 -9 -15z"/>
<path d="M6956 655 c4 -8 10 -15 15 -15 4 0 6 7 3 15 -4 8 -10 15 -15 15 -4 0
-6 -7 -3 -15z"/>
<path d="M6958 605 c-3 -14 -1 -25 3 -25 5 0 9 11 9 25 0 14 -2 25 -4 25 -2 0
-6 -11 -8 -25z"/>
<path d="M6960 560 c0 -5 0 -11 0 -12 3 -22 -61 -178 -72 -178 -5 0 -8 -5 -8
-11 0 -32 47 44 68 111 14 45 24 100 17 100 -3 0 -5 -4 -5 -10z"/>
<path d="M6813 272 c-35 -37 -91 -85 -125 -107 -35 -22 -69 -45 -76 -52 -7 -7
-19 -13 -26 -13 -7 0 -26 -10 -41 -22 -17 -13 -40 -21 -61 -20 -18 1 -35 -2
-38 -6 -2 -4 34 -7 80 -7 46 0 84 4 84 9 0 4 -14 6 -30 4 -45 -7 -46 7 -2 28
58 27 193 124 232 165 50 53 72 80 68 84 -2 2 -31 -27 -65 -63z"/>
<path d="M2380 52 c0 -8 96 -9 104 -1 3 3 -19 6 -49 7 -30 0 -55 -2 -55 -6z"/>
<path d="M2500 52 c0 -8 136 -9 144 -1 3 3 -28 6 -69 6 -41 1 -75 -2 -75 -5z"/>
<path d="M2660 52 c0 -8 96 -9 104 -1 3 3 -19 6 -49 7 -30 0 -55 -2 -55 -6z"/>
<path d="M2780 52 c0 -8 96 -9 104 -1 3 3 -19 6 -49 7 -30 0 -55 -2 -55 -6z"/>
<path d="M2900 52 c0 -8 96 -9 104 -1 3 3 -19 6 -49 7 -30 0 -55 -2 -55 -6z"/>
<path d="M3020 52 c0 -8 96 -9 104 -1 3 3 -19 6 -49 7 -30 0 -55 -2 -55 -6z"/>
<path d="M3140 52 c0 -4 29 -7 65 -8 36 0 65 2 65 5 0 3 -29 7 -65 8 -36 1
-65 -1 -65 -5z"/>
<path d="M3286 52 c-2 -4 6 -8 20 -8 13 0 24 4 24 8 0 10 -37 10 -44 0z"/>
<path d="M3346 52 c-2 -4 7 -8 20 -8 13 -1 24 1 24 5 0 9 -38 12 -44 3z"/>
<path d="M3406 52 c-2 -4 6 -8 20 -8 13 0 24 4 24 8 0 10 -37 10 -44 0z"/>
<path d="M3466 52 c-2 -4 7 -8 20 -8 13 -1 24 1 24 5 0 9 -38 12 -44 3z"/>
<path d="M3526 52 c-2 -4 6 -8 20 -8 13 0 24 4 24 8 0 10 -37 10 -44 0z"/>
<path d="M3586 52 c-2 -4 7 -8 20 -8 13 -1 24 1 24 5 0 9 -38 12 -44 3z"/>
<path d="M3646 52 c-2 -4 6 -8 20 -8 13 0 24 4 24 8 0 10 -37 10 -44 0z"/>
<path d="M3706 52 c-2 -4 7 -8 20 -8 13 -1 24 1 24 5 0 9 -38 12 -44 3z"/>
<path d="M3766 52 c-2 -4 6 -8 20 -8 13 0 24 4 24 8 0 10 -37 10 -44 0z"/>
<path d="M3825 50 c-2 -3 21 -5 51 -6 30 0 54 3 54 7 0 8 -100 7 -105 -1z"/>
<path d="M4186 52 c-2 -4 7 -8 20 -8 13 -1 24 1 24 5 0 9 -38 12 -44 3z"/>
<path d="M4246 52 c-2 -4 6 -8 20 -8 13 0 24 4 24 8 0 10 -37 10 -44 0z"/>
<path d="M4306 52 c-2 -4 7 -8 20 -8 13 -1 24 1 24 5 0 9 -38 12 -44 3z"/>
<path d="M4366 52 c-2 -4 6 -8 20 -8 13 0 24 4 24 8 0 10 -37 10 -44 0z"/>
<path d="M4426 52 c-2 -4 7 -8 20 -8 13 -1 24 1 24 5 0 9 -38 12 -44 3z"/>
<path d="M4483 54 c8 -8 64 -12 75 -5 8 5 -4 8 -32 8 -26 0 -45 -1 -43 -3z"/>
<path d="M4580 52 c0 -8 96 -9 104 -1 3 3 -19 6 -49 7 -30 0 -55 -2 -55 -6z"/>
<path d="M5100 52 c0 -8 96 -9 104 -1 3 3 -19 6 -49 7 -30 0 -55 -2 -55 -6z"/>
<path d="M5220 52 c0 -8 96 -9 104 -1 3 3 -19 6 -49 7 -30 0 -55 -2 -55 -6z"/>
<path d="M5340 52 c0 -8 96 -9 104 -1 3 3 -19 6 -49 7 -30 0 -55 -2 -55 -6z"/>
<path d="M5460 52 c0 -8 96 -9 104 -1 3 3 -19 6 -49 7 -30 0 -55 -2 -55 -6z"/>
<path d="M5580 52 c0 -8 96 -9 104 -1 3 3 -19 6 -49 7 -30 0 -55 -2 -55 -6z"/>
<path d="M5700 52 c0 -4 29 -7 65 -8 36 0 65 2 65 5 0 3 -29 7 -65 8 -36 1
-65 -1 -65 -5z"/>
<path d="M5846 52 c-2 -4 6 -8 20 -8 13 0 24 4 24 8 0 10 -37 10 -44 0z"/>
<path d="M5906 52 c-2 -4 7 -8 20 -8 13 -1 24 1 24 5 0 9 -38 12 -44 3z"/>
<path d="M5966 52 c-2 -4 6 -8 20 -8 13 0 24 4 24 8 0 10 -37 10 -44 0z"/>
<path d="M6026 52 c-2 -4 7 -8 20 -8 13 -1 24 1 24 5 0 9 -38 12 -44 3z"/>
<path d="M6086 52 c-2 -4 6 -8 20 -8 13 0 24 4 24 8 0 10 -37 10 -44 0z"/>
<path d="M6146 52 c-2 -4 7 -8 20 -8 13 -1 24 1 24 5 0 9 -38 12 -44 3z"/>
<path d="M6206 52 c-2 -4 6 -8 20 -8 13 0 24 4 24 8 0 10 -37 10 -44 0z"/>
<path d="M6266 52 c-2 -4 7 -8 20 -8 13 -1 24 1 24 5 0 9 -38 12 -44 3z"/>
<path d="M6326 52 c-2 -4 6 -8 20 -8 13 0 24 4 24 8 0 10 -37 10 -44 0z"/>
<path d="M6386 52 c-2 -4 7 -8 20 -8 13 -1 24 1 24 5 0 9 -38 12 -44 3z"/>
<path d="M6626 52 c-2 -4 7 -8 20 -8 13 -1 24 1 24 5 0 9 -38 12 -44 3z"/>
<path d="M6686 52 c-2 -4 6 -8 20 -8 13 0 24 4 24 8 0 10 -37 10 -44 0z"/>
<path d="M6746 52 c-2 -4 7 -8 20 -8 13 -1 24 1 24 5 0 9 -38 12 -44 3z"/>
<path d="M6806 52 c-2 -4 6 -8 20 -8 13 0 24 4 24 8 0 10 -37 10 -44 0z"/>
</g>
</svg>
